# ProBuilder 4.5.0
# https://unity3d.com/unity/features/worldbuilding/probuilder
# 08/07/2021 20:43:59

mtllib ./Cube_model(5).mtl
o Cube model(5)

g Cube (5)
v 7.771325 -2.056619 0.373617
v 3.709281 -2.056619 8.021273
v 3.709281 2.056618 8.021273
v 7.771325 2.056618 0.373617
v 14.82893 -2.056619 15.93609
v 14.82893 2.056618 15.93609
v 10.57527 -2.056619 28.66034
v -0.7359909 -2.056619 25.82212
v -0.7359909 2.056618 25.82212
v 10.57527 2.056618 28.66034
v -5.717111 -2.056619 17.72943
v -5.717111 2.056618 17.72943
v -9.201687 -2.056619 3.187354
v -9.201687 2.056618 3.187354
v 16.94352 -2.056619 23.7161
v 16.94352 2.056618 23.7161
v 3.143298 2.023238 15.75097
v 3.143298 -2.09 15.75097

vt 23.84978 0.02199296
vt 13.46128 0.02199296
vt 13.46128 2.731993
vt 23.84978 2.731993
vt -5.131486 0.02199296
vt -5.131486 2.731993
vt 32.15736 0.02199296
vt 12.36201 0.02199296
vt 12.36201 2.731993
vt 32.15736 2.731993
vt -3.488033 0.02199296
vt -3.488033 2.731993
vt 0.160567 0.02199296
vt -16.03174 0.02199296
vt -16.03174 2.731993
vt 0.160567 2.731993
vt -34.95056 0.02199296
vt -34.95056 2.731993
vt 12.89337 0.02199296
vt 1.836306 0.02199296
vt 1.836306 2.731993
vt 12.89337 2.731993
vt -8.697518 0.02199296
vt -8.697518 2.731993
vt 21.05087 -2.499878
vt 9.890868 -8.649879
vt 17.40117 22.23405
vt 34.89854 -1.929764
vt -7.167155 -11.71541
vt 0.05087608 3.500123
vt 18.99785 -27.21955
vt 9.916038 -37.63641
vt -2.034992 -32.11237
vt -18.99698 -27.21967
vt -21.05 -2.5
vt -9.89 -8.65
vt -9.915161 -37.63653
vt 7.168033 -11.71553
vt 2.035868 -32.1125
vt -34.89766 -1.929886
vt -17.4003 22.23393
vt -0.04999948 3.5

vn 0.4882888 0 0.2527721
vn 0.351236 0 -0.5162998
vn -0.1873647 0 0.5917521
vn -0.4866656 0 0.3707573
vn -0.5529051 0 0.2098408
vn -0.02561067 0 -0.5995708
vn 0.5485575 0 -0.2268494
vn 0.300617 0 0.4768183
vn -0.0002211741 1.517799 0.000529939
vn -0.0004423483 1.517797 0.001059878
vn 0 1.5178 0
vn 0.0007724864 1.517798 -0.0004383019
vn 0.000759204 1.517798 -0.0005783857
vn -0.0006802948 1.517798 0.0006657951
vn -0.0006327167 1.517799 0.0002616524
vn -0.0007278728 1.517797 0.001069938
vn -7.612912E-07 1.517799 -0.0008326957
vn 0.000680296 -1.517798 -0.0006657963
vn 0.0007278742 -1.517797 -0.00106994
vn 0.0006327179 -1.517799 -0.0002616529
vn 7.612637E-07 -1.517799 0.0008326973
vn 3.806319E-07 -1.517799 0.0004163487
vn 0.0002211745 -1.517799 -0.00052994
vn 0.0004423491 -1.517797 -0.00105988
vn -0.0007857704 -1.517798 0.0002982187
vn -0.0007592054 -1.517798 0.0005783867

usemtl default
f 4/4/1 3/3/1 2/2/1 1/1/1
f 3/3/2 6/6/2 5/5/2 2/2/2
f 7/7/3 10/10/3 9/9/3 8/8/3
f 8/8/4 9/9/4 12/12/4 11/11/4
f 12/16/5 14/15/5 13/14/5 11/13/5
f 14/15/6 4/18/6 1/17/6 13/14/6
f 5/19/7 6/22/7 16/21/7 15/20/7
f 15/20/8 16/21/8 10/24/8 7/23/8
f 4/28/11 14/27/9 17/26/10 3/25/9
f 14/27/12 12/30/12 9/29/13 17/26/12
f 3/25/16 17/26/14 16/32/15 6/31/14
f 17/26/17 9/29/11 10/33/11 16/32/11
f 15/37/20 18/36/18 2/35/19 5/34/18
f 7/39/22 8/38/22 18/36/21 15/37/22
f 18/36/24 13/41/23 1/40/22 2/35/23
f 8/38/26 11/42/25 13/41/25 18/36/25

